<svg width="144" height="80" viewBox="0 0 144 80" fill="none" xmlns="http://www.w3.org/2000/svg">
<path d="M9.77756 54.2345C9.77756 54.2345 9.64894 54.1624 9.78623 53.9936C9.54589 53.5921 9.16828 53.3595 8.79066 53.1268C8.79066 53.1268 8.82624 53.1271 8.89313 52.9905C8.7753 52.819 8.59057 52.7842 8.40585 52.7493C8.40585 52.7493 8.43969 52.7492 8.50683 52.6118C8.38923 52.4395 8.2045 52.4046 8.01976 52.3697C8.01976 52.3697 8.05356 52.3696 8.12074 52.2322C8.00317 52.0599 7.81843 52.025 7.63369 51.9901C7.63369 51.9901 7.66748 51.99 7.73466 51.8526C7.61711 51.6802 7.43237 51.6454 7.24763 51.6104C7.24763 51.6104 7.28141 51.6104 7.3486 51.4729C7.23105 51.3006 7.04631 51.2657 6.86156 51.2308C6.86156 51.2308 6.89535 51.2307 6.96254 51.0933C6.84499 50.921 6.66025 50.8861 6.4755 50.8512C6.4755 50.8512 6.50928 50.8511 6.57649 50.7137C6.45895 50.5413 6.2742 50.5064 6.08945 50.4715C6.08945 50.4715 6.12323 50.4714 6.19047 50.334C6.07295 50.1616 5.88818 50.1267 5.7034 50.0918C5.7034 50.0918 5.7372 50.0917 5.8045 49.9543C5.687 49.7819 5.5022 49.747 5.3174 49.712C5.3174 49.712 5.34729 49.7133 5.44987 49.58C5.21908 49.2859 4.8857 49.125 4.55232 48.9641C4.55232 48.9641 4.57712 48.9492 4.7228 48.8789C4.63078 48.5969 4.39308 48.3852 4.15538 48.1734C4.15538 48.1734 4.20793 48.1776 4.21518 48.0699C4.07183 47.91 3.92122 47.8578 3.77061 47.8055C3.77061 47.8055 3.81529 47.8056 3.83695 47.6896C3.70065 47.5249 3.5427 47.4762 3.38475 47.4275C3.38475 47.4275 3.42769 47.4275 3.45686 47.3035C3.32402 47.137 3.16201 47.0943 3 47.0516C3 47.0516 3.03456 47.0532 3.11315 46.9232C3.51762 46.52 3.84165 46.0121 4.16965 46.0096C8.24964 45.9786 12.3302 46.021 16.4703 46.1578C22.9052 54.023 31.0771 59.3907 40.2639 63.3274C55.3072 69.7736 71.0745 71.9709 87.3663 70.6224C105.026 69.1605 121.068 63.5539 134.877 52.3509C135.475 51.8659 136.287 51.6372 137 51.2891C136.664 51.789 136.412 52.3768 135.98 52.7747C132.834 55.6669 129.652 58.5209 126.217 61.431C125.521 61.8661 125.09 62.2572 124.659 62.6484C124.659 62.6484 124.655 62.6239 124.548 62.5229C124.125 62.7518 123.808 63.0818 123.492 63.4117C123.492 63.4117 123.495 63.3828 123.38 63.2991C122.955 63.5339 122.645 63.8524 122.334 64.1708C122.334 64.1708 122.337 64.1417 122.216 64.0592C121.791 64.2938 121.486 64.6108 121.182 64.9278C121.182 64.9278 121.177 64.9033 121.098 64.7811C120.697 64.8713 120.375 65.0837 120.054 65.2962C114.105 69.1126 107.572 71.6352 100.806 73.6056C98.2279 74.3563 95.5854 74.8918 92.7211 75.4207C90.828 75.529 89.1855 75.7385 87.5441 75.9554C84.9791 76.2944 82.4147 76.6384 79.8501 76.9803C79.4555 77.002 79.0609 77.0238 78.3971 76.9398C74.8309 76.8829 71.5338 76.9317 68.2368 76.9805C64.5391 76.6147 60.7718 76.5691 57.1594 75.8103C51.2951 74.5782 45.515 72.9396 39.7365 71.3424C37.8267 70.8145 36.0317 69.8848 33.9879 68.9486C33.1838 68.6163 32.5761 68.4741 31.9683 68.3319C31.9683 68.3319 31.9924 68.3231 32.0122 68.1768C31.7507 68.0012 31.4695 67.9718 31.1883 67.9425C31.1883 67.9425 31.2214 67.9367 31.2255 67.7987C30.9584 67.6281 30.6872 67.5954 30.416 67.5627C30.416 67.5627 30.4494 67.5569 30.4531 67.4191C30.1858 67.2486 29.9148 67.2158 29.6439 67.183C29.6439 67.183 29.6773 67.1772 29.6807 67.0394C29.4134 66.8689 29.1426 66.8362 28.8718 66.8035C28.8718 66.8035 28.9052 66.7976 28.9086 66.6598C28.6412 66.4893 28.3705 66.4565 28.0997 66.4238C28.0997 66.4238 28.133 66.418 28.1367 66.2802C27.8694 66.1096 27.5985 66.0769 27.3276 66.0441C27.3276 66.0441 27.3614 66.038 27.3605 65.8913C27.093 65.7198 26.8264 65.6951 26.5598 65.6704C26.5598 65.6704 26.5832 65.6603 26.6706 65.5494C26.311 65.2725 25.8639 65.1067 25.4168 64.9409C20.7082 61.643 15.9995 58.3452 11.1329 54.8401C10.5757 54.5001 10.1766 54.3673 9.77756 54.2345Z" fill="#6B6767"/>
<path d="M136.873 51.1952C136.057 51.589 135.248 51.8183 134.653 52.3044C120.911 63.534 104.945 69.1539 87.3696 70.6191C71.1557 71.9709 55.4637 69.7684 40.4923 63.3069C31.3495 59.3609 23.2166 53.9805 17 46.0692C21.7276 45.9575 26.3271 45.9866 31.004 46.1165C37.1661 52.5137 44.4476 57.0826 52.6948 59.9009C82.6489 70.1369 110.797 66.1034 137.172 48.9414C137.744 48.5691 138.394 48.3149 139 48.1398C138.495 49.0814 137.999 49.8887 137.503 50.6961C137.329 50.8475 137.154 50.999 136.873 51.1952Z" fill="#ABABAB"/>
<path d="M138.95 48.4852C138.336 48.7956 137.686 49.0507 137.114 49.4242C110.735 66.6439 82.5829 70.6909 52.6245 60.4205C44.3761 57.5928 37.0936 53.0085 31 46.484C31.015 46.1959 31.038 46.1148 31.0611 46.0337C35.528 46.0178 39.995 45.99 44.4619 46.0036C44.9223 46.005 45.5262 46.1115 45.8205 46.4076C51.6106 52.2339 58.7899 55.5362 66.5641 57.7728C67.156 57.9431 67.7622 58.0645 68.534 58.3256C68.9591 58.4722 69.2119 58.5019 69.4648 58.5316C71.1411 58.8058 72.8175 59.0799 74.689 59.4808C75.2557 59.6287 75.6274 59.6499 75.999 59.6712C76.7756 59.693 77.5521 59.7148 78.5121 59.8533C78.9497 59.9969 79.2038 60.0238 79.458 60.0506C83.9695 60.071 88.483 60.1799 92.9916 60.0763C95.4146 60.0207 97.829 59.6004 100.479 59.3917C100.935 59.2984 101.159 59.1581 101.383 59.0177C102.547 58.8722 103.711 58.7267 105.097 58.628C105.545 58.5344 105.769 58.3941 105.994 58.2537C106.276 58.2358 106.558 58.2178 107.04 58.2497C107.465 58.1568 107.69 58.0142 107.915 57.8715C108.701 57.7264 109.487 57.5813 110.485 57.486C110.923 57.3934 111.148 57.251 111.374 57.1086C111.539 57.0907 111.705 57.0729 112.052 57.1046C112.46 57.0117 112.685 56.8692 112.911 56.7267C113.076 56.7087 113.241 56.6908 113.589 56.7226C113.997 56.6297 114.222 56.487 114.448 56.3444C114.984 56.1994 115.521 56.0543 116.258 55.9633C116.685 55.8719 116.911 55.7263 117.138 55.5808C124.338 52.7628 131.537 49.9447 138.915 47.1926C139.046 47.6675 138.998 48.0764 138.95 48.4852Z" fill="#FCFDFE"/>
<path d="M130.01 25.8843C131.249 24.5907 132.553 24.7501 133.104 26.1418C133.875 28.0892 134.593 30.0546 135.492 32.4319C136.278 30.3614 137.069 28.7127 137.513 26.9896C137.983 25.1641 139.005 24.6404 141 25.2412C141 30.4374 141 35.6484 141 40.9983C140.092 40.9983 139.236 40.9983 138.166 40.9983C138.166 38.7657 138.166 36.5264 138.166 34.2871C138.034 34.2664 137.901 34.2456 137.769 34.2248C137.449 35.0671 137.21 35.9464 136.774 36.7355C136.561 37.1195 135.955 37.5935 135.575 37.5611C135.093 37.52 134.466 37.091 134.246 36.6771C133.713 35.6721 133.379 34.5791 132.635 33.588C132.635 36.0153 132.635 38.4427 132.635 41C131.766 41 131.037 41 130 41C130 36.0144 130 31.0288 130.01 25.8843Z" fill="#F3F3F3"/>
<path d="M107.182 35.2081C107.182 34.5376 107.182 34.0206 107.182 33.5035C107.068 33.4797 106.954 33.4559 106.84 33.4321C106.121 35.2974 105.339 37.1483 104.7 39.0319C103.961 41.2068 104.015 41.2193 101 40.7576C101 35.6116 101 30.4435 101 25.1414C102.01 25.1414 102.949 25.1414 104.119 25.1414C104.119 27.5989 104.119 30.0527 104.119 32.5066C104.248 32.5198 104.377 32.533 104.506 32.5463C105.241 30.6063 106.199 28.7005 106.646 26.7164C107.053 24.9068 108.161 24.7897 110 25.1873C110 30.381 110 35.5501 110 40.848C109.117 40.848 108.318 40.848 107.182 40.848C107.182 39.0161 107.182 37.1888 107.182 35.2081Z" fill="#F3F3F3"/>
<path d="M93.0719 31.1777C93.0719 29.0378 93.0719 27.0726 93.0719 25C94.0055 25 94.7134 25 95.682 25C95.682 27.9621 95.5665 30.8619 95.7246 33.7485C95.8221 35.531 95.2035 37.3042 96.5964 39.1488C97.4083 40.2238 96.7442 42.2793 96.7442 44C95.8654 44 95.1578 44 94.3267 44C94.2388 43.0302 94.1569 42.1261 94.0559 41.0111C92.0512 41.0111 90.0974 41.0111 88 41.0111C88 35.5885 88 30.3817 88 25.0301C88.8527 25.0301 89.6846 25.0301 90.7475 25.0301C90.7475 29.4082 90.7475 33.805 90.7475 38.3524C91.5985 38.3524 92.2225 38.3524 93.0719 38.3524C93.0719 35.984 93.0719 33.6682 93.0719 31.1777Z" fill="#F3F3F3"/>
<path d="M3.00001 27.491C3.00002 26.64 3.00002 25.9571 3.00002 25.1491C3.89747 25.1491 4.60167 25.1491 5.51503 25.1491C5.51503 27.8471 5.51503 30.5325 5.51503 33.2178C5.62709 33.2289 5.73915 33.2401 5.85121 33.2512C6.5088 31.1844 7.29826 29.1444 7.78282 27.0426C8.18051 25.3175 9.00551 24.6194 11 25.2017C11 30.3234 11 35.5067 11 40.8506C10.2767 40.8506 9.53295 40.8506 8.63649 40.8506C8.63649 38.1461 8.63649 35.4972 8.63649 32.8482C8.52856 32.831 8.42064 32.8137 8.31272 32.7965C7.60306 34.9361 6.89397 37.0758 6.18358 39.2152C5.52584 41.196 5.52524 41.1958 3 40.779C3 36.4346 3 32.0468 3.00001 27.491Z" fill="#F3F3F3"/>
<path d="M61.5937 40.9907C60.5367 41.0497 59.9938 40.8438 60.0001 39.8738C60.031 35.0475 60.0142 30.221 60.0142 25.1148C62.4183 25.3128 64.8597 24.2303 66.7964 26.2573C68.0255 27.5437 67.95 30.4862 66.6543 32.5834C68.214 34.4142 68.2923 36.4807 67.5282 38.5837C66.9952 40.0505 65.8841 41.006 64.0412 40.9916C63.2841 40.9857 62.5268 40.9913 61.5937 40.9907ZM63.0666 34.7774C63.0666 35.9928 63.0666 37.2082 63.0666 38.5075C65.0842 37.8386 65.8103 36.2292 64.9685 34.8534C64.4999 34.0874 63.9484 33.7157 63.0666 34.7774ZM63.0509 30.297C63.0597 30.9517 63.3591 31.6707 64.0674 31.0584C64.6278 30.5738 64.8369 29.5833 64.8492 28.8128C64.855 28.441 64.0486 28.0584 63.6099 27.6806C63.4223 27.7836 63.2346 27.8865 63.0469 27.9895C63.0469 28.6595 63.0469 29.3296 63.0509 30.297Z" fill="#F3F3F3"/>
<path d="M115.31 39.1412C115.69 37.2079 116.05 35.4233 116.488 33.254C114.754 31.4023 114.722 28.9311 116.379 26.6142C118.14 24.1511 121.225 25.305 124 25.072C124 30.3803 124 35.5367 124 40.8431C123.212 40.8431 122.416 40.8431 121.323 40.8431C121.323 38.7894 121.323 36.6896 121.323 34.5898C121.094 34.4903 120.865 34.3907 120.636 34.2911C120.131 34.7635 119.396 35.1718 119.17 35.722C118.729 36.7912 118.31 37.9479 118.358 39.0545C118.446 41.1085 117.132 41.2003 115 40.8314C115.095 40.3231 115.192 39.8065 115.31 39.1412ZM121.233 29.4358C121.183 28.942 121.133 28.4482 121.041 27.5356C120.068 27.9574 119.006 28.1369 118.86 28.5409C118.575 29.332 118.594 30.3041 118.907 31.0876C119.05 31.4452 120.189 31.5327 121.117 31.8164C121.17 30.8709 121.202 30.3077 121.233 29.4358Z" fill="#F3F3F3"/>
<path d="M32 31.9614C32 29.6043 32 27.421 32 25.1278C32.9702 25.1278 33.7096 25.1278 34.6843 25.1278C34.6843 27.2386 34.6843 29.2921 34.6843 31.4815C35.5197 31.5285 36.1322 31.563 36.986 31.611C36.986 29.4331 36.986 27.3775 36.986 25.1235C38.0734 25.0789 38.941 25.0434 40 25C40 30.3374 40 35.5512 40 40.8814C39.083 40.8814 38.2147 40.8814 37.1081 40.8814C37.1081 38.6482 37.1081 36.4798 37.1081 34.1765C36.2705 34.1312 35.6581 34.0982 34.805 34.0521C34.805 36.3474 34.805 38.5191 34.805 40.8869C33.8474 40.9255 33.1095 40.9553 32 41C32 37.9748 32 35.055 32 31.9614Z" fill="#F3F3F3"/>
<path d="M22.3735 26.5183C22.3492 24.1827 23.9081 25.3175 25 25.0306C25 30.4024 25 35.6483 25 41C24.1504 41 23.3755 41 22.3899 41C22.3899 38.7212 22.3899 36.5396 22.3899 34.2489C21.6347 34.2489 21.0889 34.2489 20.3341 34.2489C20.3341 36.4583 20.3341 38.6408 20.3341 40.9603C19.4686 40.9603 18.8085 40.9603 18 40.9603C18 35.7325 18 30.4849 18 25.1436C18.7449 25.1436 19.4047 25.1436 20.2732 25.1436C20.2732 27.3065 20.2732 29.373 20.2732 31.5457C21.0259 31.5457 21.5714 31.5457 22.3728 31.5457C22.3728 29.9 22.3728 28.2909 22.3735 26.5183Z" fill="#F3F3F3"/>
<path d="M46.0723 27.5101C47.3548 25.2385 48.9188 24.5952 51.5953 25.2331C53.0775 25.5863 53.9595 26.4725 53.9666 27.8519C53.984 31.2296 54.0413 34.6088 53.9481 37.9847C53.8829 40.3429 52.6291 41.0932 49.3591 40.991C47.0729 40.9194 46.006 39.9243 46.0012 37.7851C45.9937 34.4077 46.0205 31.0302 46.0723 27.5101ZM51.1838 33.2485C50.7558 31.3903 52.16 29.2146 50.0647 27.5372C48.1442 29.0254 48.3039 37.4802 50.3936 38.6519C50.6743 38.0062 51.0807 37.4361 51.1474 36.8379C51.2671 35.7638 51.1828 34.6728 51.1838 33.2485Z" fill="#F3F3F3"/>
<path d="M81.4329 37.3172C81.631 38.607 81.8068 39.7471 82 41C81.1301 41 80.3502 41 79.4358 41C79.1913 40.0766 78.9431 39.1393 78.6624 38.079C77.9924 38.079 77.2826 38.079 76.4585 38.079C76.2091 39.002 75.9562 39.938 75.6728 40.9869C74.869 40.9869 74.0341 40.9869 73 40.9869C74.0177 35.6683 75.0209 30.4255 76.0185 25.212C79.1481 24.8261 78.9842 24.7175 79.4525 27.1332C80.101 30.4786 80.7575 33.8227 81.4329 37.3172ZM77.7644 31.8839C77.7273 31.4972 77.6902 31.1106 77.6532 30.7239C77.583 30.7261 77.5128 30.7283 77.4426 30.7305C77.2551 32.1375 77.0676 33.5444 76.8802 34.9513C77.0083 35.0334 77.1364 35.1155 77.2645 35.1976C77.5474 34.9239 78.0601 34.6562 78.0685 34.3752C78.0903 33.6423 77.8911 32.9036 77.7644 31.8839Z" fill="#F3F3F3"/>
<path d="M90.2582 5.12452C89.6556 4.27872 89.053 3.43292 88.2972 2.37223C89.0186 2.16343 89.3706 1.93248 89.5933 2.01844C90.8479 2.50284 92.0689 3.57431 93.3139 2.01234C93.6284 2.37685 94.2259 2.76571 94.1954 3.10053C94.1406 3.70268 93.7091 4.2724 93.3888 4.95395C93.9323 5.06966 94.4278 5.17515 95 5.29698C95 10.1148 95 14.9213 95 19.8585C94.2581 19.8585 93.625 19.8585 92.7666 19.8585C92.7666 17.5947 92.7666 15.3569 92.7666 13.1191C92.6472 13.1069 92.5277 13.0947 92.4082 13.0825C91.8715 14.7888 91.2529 16.4758 90.823 18.2072C90.4532 19.6961 89.7364 20.3752 88 19.792C88 15.043 88 10.2441 88 5.24999C88.6527 5.20182 89.2931 5.15456 90.1054 5.28677C90.2773 7.64179 90.2773 9.81734 90.2773 11.9929C90.3955 12.0089 90.5138 12.025 90.632 12.041C91.3038 9.81491 91.9757 7.5888 92.7194 5.12452C91.705 5.12452 90.9816 5.12452 90.2582 5.12452Z" fill="#F3F3F3"/>
<path d="M7.39363 6C10.1518 7.16346 11.3392 9.18236 10.9168 12.2867C10.77 13.3654 11.0086 14.5063 10.8514 15.5815C10.7362 16.3697 10.3774 17.1939 9.91857 17.8266C9.36769 18.5863 8.64097 19.2315 7.89745 19.7803C7.57993 20.0146 6.90204 20.0852 6.60434 19.875C5.60982 19.1726 4.49731 18.471 3.84452 17.4591C3.28136 16.5861 3.20242 15.3019 3.06158 14.1774C2.94112 13.2156 3.03398 12.2224 3.03703 11.2431C3.04669 8.13809 4.29166 6.5923 7.39363 6ZM6.11077 11.7571C6.11077 10.9379 6.11077 10.1187 6.11077 9.1148C4.66667 10.44 4.71985 15.3457 6.11077 16.3645C6.11077 14.8803 6.11077 13.4904 6.11077 11.7571ZM8.21811 15.7877C8.42393 15.6156 8.80422 15.4485 8.80856 15.2708C8.85134 13.5174 8.84775 11.7619 8.81214 10.0081C8.80694 9.75199 8.56468 9.5015 8.17646 8.76038C8.17646 11.3782 8.17646 13.4268 8.21811 15.7877Z" fill="#F3F3F3"/>
<path d="M70.7354 8.44111C70.7354 7.55378 70.7354 6.83973 70.7354 6C72.5032 6 74.0684 6 75.897 6C75.897 9.07984 75.8427 12.1029 75.9344 15.1208C75.9579 15.8943 76.5767 16.6308 76.6862 17.4214C76.882 18.8349 76.8986 20.2765 77 21.8621C76.2361 21.9166 75.6982 21.9551 75.0698 22C74.9486 21.3048 74.8474 20.7243 74.7167 19.9745C73.4851 19.9745 72.2203 19.9745 70.8676 19.9745C70.7826 20.5928 70.7025 21.1762 70.618 21.7915C69.5279 22.2075 68.9307 21.9777 69.0163 20.6487C69.0979 19.38 68.6365 17.9892 69.9265 17.0132C70.2232 16.7887 70.3355 16.1478 70.3656 15.6862C70.519 13.3312 70.6176 10.9721 70.7354 8.44111ZM72.4559 12.6442C72.4559 14.0841 72.4559 15.524 72.4559 17.0916C72.7313 17.0916 73.1987 17.0916 73.8251 17.0916C73.8251 14.4759 73.8516 11.9804 73.7939 9.48717C73.7861 9.15087 73.3548 8.82571 73.1196 8.49538C72.9003 8.84308 72.5297 9.17304 72.4917 9.54197C72.3982 10.4478 72.4579 11.3716 72.4559 12.6442Z" fill="#F3F3F3"/>
<path d="M33 19.8358C33.3638 18.8289 33.7693 17.9966 34.0787 17.1386C34.3449 16.4003 34.6226 15.6401 34.6851 14.8768C34.923 11.9725 35.0757 9.06301 35.2701 6C37.2527 6 39.1952 6 41.5363 6C41.5363 7.82691 41.373 9.70468 41.5794 11.5518C41.8152 13.6617 40.7052 15.8613 42.6446 17.9263C43.3689 18.6975 42.7619 20.3969 42.7619 21.8399C41.9573 21.8399 41.2457 21.8399 40.413 21.8399C40.309 21.234 40.2084 20.6481 40.0873 19.9432C38.5175 19.9432 36.995 19.9432 35.377 19.9432C34.8837 20.7313 35.6041 22.6761 33.1029 21.7598C33.0699 21.1951 33.0349 20.5972 33 19.8358ZM38.9754 15.1445C38.9739 13.3223 39.0219 11.4982 38.9332 9.67911C38.9131 9.26791 38.4175 8.87393 38.1408 8.47203C37.8515 8.86293 37.3243 9.24825 37.3118 9.64562C37.2344 12.1004 37.2729 14.558 37.2729 17.1155C38.9648 17.6479 39.0343 16.6276 38.9754 15.1445Z" fill="#F3F3F3"/>
<path d="M131.989 18.8225C131.34 19.2734 130.702 19.5608 129.727 20C129.727 17.4795 129.727 15.4582 129.727 13.4368C129.594 13.4105 129.461 13.3841 129.328 13.3578C128.775 14.9188 128.179 16.4688 127.679 18.0439C127.133 19.7639 127.172 19.774 125 19.5055C125 15.11 125 10.6966 125 6.12492C125.668 6.08592 126.292 6.04949 127.139 6C127.139 8.19592 127.139 10.2691 127.139 12.3423C127.261 12.3561 127.382 12.3698 127.504 12.3835C128.06 10.7651 128.721 9.16863 129.14 7.52134C129.492 6.13577 130.268 5.73868 132 6.22093C132 10.3044 132 14.4817 131.989 18.8225Z" fill="#F3F3F3"/>
<path d="M26.4616 10.6583C26.7584 11.0565 27.0463 11.2886 27.3343 11.5206C27.5291 11.1888 27.8768 10.864 27.8921 10.524C27.9556 9.1119 27.9188 7.6952 27.9188 6.1301C28.6795 6.08255 29.2614 6.04617 30 6C30 10.6918 30 15.2482 30 19.967C29.3846 19.967 28.7653 19.967 27.9205 19.967C27.9205 18.3666 27.9647 16.8283 27.8879 15.296C27.8698 14.9342 27.4445 14.593 27.2065 14.2423C26.9556 14.5797 26.5061 14.9067 26.488 15.2562C26.4085 16.79 26.4537 18.3304 26.4537 20C25.5543 20 24.8516 20 24 20C24 15.4237 24 10.869 24 6.15569C24.7138 6.15569 25.4155 6.15569 26.4528 6.15569C26.4528 7.57384 26.4528 9.03305 26.4616 10.6583Z" fill="#F3F3F3"/>
<path d="M121 15.0055C120.949 19.3411 119.493 20.5034 115 19.8163C115 15.338 115 10.8355 115 6.04948C116.125 6.04948 117.259 5.92068 118.353 6.07869C120.139 6.33656 121.4 8.45722 120.765 10.4377C120.257 12.0231 120.269 13.4146 121 15.0055ZM118.784 16.3609C118.888 15.1301 118.981 13.9064 117.033 13.8504C117.033 14.7102 116.99 15.4877 117.051 16.2566C117.08 16.6268 117.306 16.9809 117.442 17.3422C117.853 17.1088 118.264 16.8753 118.784 16.3609ZM118.514 10.6629C118.46 10.0471 118.457 9.41763 118.306 8.82741C118.278 8.71478 117.372 8.6958 117.364 8.73668C117.191 9.59314 117.089 10.4645 116.903 11.8605C117.703 11.369 118.061 11.1495 118.514 10.6629Z" fill="#F3F3F3"/>
<path d="M141 17.3903C141 18.2892 141 19.0106 141 19.8783C140.205 19.9204 139.598 19.9525 138.7 20C138.7 18.014 138.7 16.1677 138.7 13.9689C136.739 15.1781 136.985 16.831 136.799 18.1958C136.574 19.8501 135.839 20.3049 134 19.7514C134.425 17.8165 134.864 15.8972 135.255 13.9692C135.329 13.6049 135.35 13.1245 135.162 12.8359C133.939 10.9647 134.038 9.01807 135.285 7.35222C136.625 5.56283 138.776 5.99609 141 6.19039C141 9.91188 141 13.5623 141 17.3903ZM137.58 11.7316C139.407 11.9716 138.537 10.6137 138.62 9.96712C138.671 9.56533 138.141 9.09629 137.872 8.65745C137.506 9.0774 136.913 9.46323 136.836 9.92654C136.753 10.4275 137.152 11.0007 137.58 11.7316Z" fill="#F3F3F3"/>
<path d="M15.0227 13.0041C15.1061 11.2452 15.0797 9.65082 15.3005 8.09552C15.584 6.09834 17.0851 5.93091 18.6163 6.01749C20.1079 6.10183 20.8312 7.22934 20.8953 8.55099C21.0346 11.4245 21.035 14.3165 20.896 17.1904C20.8013 19.1472 19.7008 20.0266 17.92 19.9994C16.179 19.9728 15.2071 19.0344 15.0524 17.0468C14.9528 15.7676 15.0266 14.4734 15.0227 13.0041ZM17.7464 17.4729C18.1147 17.0725 18.7813 16.688 18.8014 16.2688C18.907 14.0727 18.8929 11.866 18.8114 9.66743C18.7944 9.20757 18.3184 8.76667 18.0539 8.31703C17.8855 8.37099 17.7171 8.42495 17.5487 8.47891C16.9227 11.3935 16.8026 14.3279 17.7464 17.4729Z" fill="#F3F3F3"/>
<path d="M59.0106 15.1743C59.0112 13.046 58.9839 11.095 59.0207 9.14481C59.0541 7.37564 60.1839 6.16642 61.8353 6.0378C64.3737 5.8401 65.6245 6.38247 65.8269 8.50757C66.1174 11.556 65.9852 14.6443 65.843 17.709C65.7573 19.5548 64.2034 20.0989 62.2542 19.9858C60.3648 19.8762 59.1518 18.8325 59.0244 17.1802C58.9776 16.5732 59.0128 15.9615 59.0106 15.1743ZM61.5837 15.957C61.8471 16.5271 62.1104 17.0972 62.3738 17.6672C62.6239 17.6047 62.8739 17.5422 63.124 17.4797C64.0159 14.4578 64.115 11.4463 62.6737 8.38483C62.0783 8.93592 61.6516 9.53839 61.6191 10.1561C61.5233 11.9771 61.5838 13.8041 61.5837 15.957Z" fill="#F3F3F3"/>
<path d="M84.9618 18.0145C85 18.7324 85 19.2898 85 20C83.3696 20 81.836 20 80 20C80 17.7217 80 15.4278 80 13.134C80 10.8153 80 8.49671 80 6C81.6815 6 83.2525 6 84.9271 6C84.9271 6.77457 84.9271 7.4904 84.9271 8.32567C83.9859 8.41297 83.1187 8.49341 82.1375 8.58442C82.1375 9.49728 82.1375 10.3388 82.1375 11.3339C82.9121 11.4203 83.6675 11.5045 84.5555 11.6035C84.5555 12.3485 84.5555 13.0642 84.5555 13.9523C83.8431 14.0424 83.0877 14.1379 82.1734 14.2535C82.1734 15.2456 82.1734 16.2551 82.1734 17.279C83.1192 17.4768 84.0214 17.6654 84.9618 18.0145Z" fill="#F3F3F3"/>
<path d="M105 17.3272C104.095 19.5396 102.836 20.2585 100.688 19.9207C98.9127 19.6416 97.9586 18.5023 98.0014 16.3858C98.0571 13.625 98.0201 10.8352 98.481 8.11736C98.8097 6.17932 101.147 5.43202 103.136 6.46523C103.962 6.89412 104.68 7.83226 104.902 8.65182C105.008 9.04699 103.852 9.70388 103.224 10.2816C102.534 9.46749 102.077 8.92866 101.575 8.33641C100.082 10.1393 100.038 16.1643 101.558 17.716C102.039 17.1335 102.482 16.5969 103.186 15.7452C103.795 16.2243 104.407 16.705 105 17.3272Z" fill="#F3F3F3"/>
<path d="M50.0085 16.2161C50.0099 13.6609 49.9806 11.2761 50.0233 8.89275C50.0525 7.26044 50.9527 6.26813 52.5185 6.05045C54.0907 5.83187 55.2582 6.29174 55.8419 8.05666C56.4243 9.81793 55.2922 9.66676 54.1699 9.79496C53.895 9.38853 53.5702 8.90829 53.2436 8.42544C51.7712 9.56268 51.7048 16.259 53.1541 17.6597C53.3114 17.3992 53.4923 17.1695 53.5963 16.9082C53.7023 16.6419 53.7325 16.3445 53.8175 15.9644C54.6007 16.142 55.2795 16.2959 55.9554 16.4492C55.5776 19.3444 54.9267 20.081 52.8739 19.9932C50.9482 19.9107 50.0701 18.8056 50.0085 16.2161Z" fill="#F3F3F3"/>
<path d="M110.152 19.9739C108.85 20.1456 108.721 19.4494 108.729 18.5215C108.755 15.303 108.739 12.0841 108.739 8.77218C108.143 8.57429 107.601 8.39443 107 8.19471C107 7.49084 107 6.82544 107 6C108.993 6 110.943 6 113 6C113 6.79293 113 7.50064 113 8.29863C112.333 8.40048 111.752 8.48903 110.923 8.61552C110.923 11.7693 110.957 14.9096 110.896 18.0479C110.883 18.6891 110.516 19.323 110.152 19.9739Z" fill="#F3F3F3"/>
<path d="M30.8913 46.03C31.041 46.1175 31.0187 46.1751 30.9289 46.308C26.3949 46.3624 21.9283 46.3417 17.2796 46.3405C13.1538 46.3432 9.2101 46.3128 5.26691 46.335C4.9499 46.3368 4.63674 46.6998 4.24496 47C3.87318 46.8261 3.57824 46.547 3 46C12.5737 46 21.6464 46 30.8913 46.03Z" fill="#CECBC9"/>
<path d="M139.174 48.6C139.222 48.0911 139.263 47.7084 139.271 47.2424C139.796 46.7802 140.355 46.4014 140.947 46C141.194 47.5494 140.638 48.4983 138 51C138.314 50.2426 138.741 49.4844 139.174 48.6Z" fill="#CFCDCD"/>
</svg>
