<svg width="120" height="120" viewBox="0 0 120 120" fill="none" xmlns="http://www.w3.org/2000/svg">
<path d="M46.7881 112.195C38.3068 107.879 29.896 103.619 21.5043 99.3229C21.231 99.183 20.9229 98.5744 21.0174 98.3382C22.0865 95.6683 23.257 93.0391 24.3499 90.3784C26.323 85.5751 28.2738 80.7626 30.2122 75.9453C33.3531 68.1394 36.462 60.3206 39.6123 52.5185C41.8693 46.9287 44.1868 41.3633 46.4489 35.7756C48.0983 31.7012 49.6817 27.6002 51.3298 23.5253C53.5759 17.972 55.8579 12.4332 58.1194 6.88616C58.8911 4.99344 59.6476 3.09457 60.491 1C60.9644 2.10055 61.4297 3.12656 61.8507 4.17028C64.0487 9.6184 66.2352 15.0711 68.426 20.5221C70.9277 26.7466 73.4178 32.9758 75.9352 39.194C78.0408 44.3953 80.1832 49.5817 82.3 54.7785C83.7728 58.3942 85.2303 62.0162 86.6935 65.6358C88.6541 70.4857 90.6133 75.3362 92.5737 80.1862C94.2072 84.2272 95.8396 88.2687 97.4765 92.3084C98.245 94.2051 98.9685 96.1228 99.8217 97.981C100.203 98.8113 99.956 99.1293 99.2415 99.4857C94.2551 101.973 89.2808 104.485 84.3072 106.998C80.1509 109.097 75.994 111.196 71.8504 113.321C68.2171 115.184 64.6101 117.098 60.9643 118.936C60.6576 119.091 60.0938 118.939 59.7351 118.76C55.4345 116.607 51.1501 114.422 46.7881 112.195ZM61.8613 91.2962C61.8613 91.2962 61.9336 91.2688 62.099 91.3218C63.4816 91.5013 64.8642 91.6808 66.3069 91.8681C66.4375 91.5627 66.5879 91.2522 66.7056 90.9297C71.0391 79.0591 75.3618 67.1846 79.7172 55.322C80.0173 54.5047 80.0244 53.8201 79.6942 53.0114C75.7994 43.4722 71.9438 33.9171 68.0627 24.3723C66.1019 19.5502 64.1103 14.7405 62.1355 9.8321C62.1232 9.76879 62.0932 9.71536 62.0599 9.59385C62.0599 9.59385 62.0019 9.53963 61.9664 9.38416C61.8248 9.05904 61.6831 8.73393 61.4017 8.08782C61.4017 8.96655 61.4017 9.47923 61.3572 10.2074C61.3546 36.8594 61.3518 63.5113 61.3512 90.1633C61.3512 90.3954 61.3812 90.6275 61.3686 90.9775C61.383 91.0153 61.3974 91.053 61.418 91.2254C61.5429 91.2373 61.6677 91.2492 61.8613 91.2962ZM41.6691 107.548C41.6691 107.548 41.6111 107.586 41.7132 107.676C41.8383 107.727 41.9634 107.779 42.1311 107.783C42.1311 107.783 42.0786 107.82 42.177 107.909C42.2976 107.963 42.4183 108.018 42.5312 108.013C42.5312 108.013 42.5502 108.069 42.6509 108.152C42.7699 108.203 42.8889 108.255 42.9974 108.251C42.9974 108.251 43.0188 108.303 43.1197 108.385C43.2387 108.437 43.3578 108.489 43.4976 108.517C43.4976 108.517 43.4689 108.506 43.5547 108.603C43.6369 108.627 43.7191 108.651 43.7958 108.647C43.7958 108.647 43.7678 108.655 43.8612 108.772C44.0431 108.853 44.2249 108.934 44.427 109.001C44.427 109.001 44.4067 108.987 44.4948 109.079C44.5752 109.102 44.6555 109.126 44.7309 109.118C44.7309 109.118 44.6994 109.126 44.7894 109.244C44.9284 109.292 45.0675 109.341 45.2008 109.353C45.2008 109.353 45.1652 109.363 45.2566 109.479C45.3961 109.527 45.5357 109.575 45.6694 109.587C45.6694 109.587 45.6337 109.596 45.7246 109.713C45.8629 109.764 46.0012 109.815 46.1345 109.828C46.1345 109.828 46.0969 109.837 46.1881 109.954C46.3272 110.004 46.4664 110.055 46.6007 110.066C46.6007 110.066 46.562 110.075 46.6558 110.191C46.7957 110.24 46.9356 110.289 47.0703 110.298C47.0703 110.298 47.0308 110.308 47.1238 110.424C47.2638 110.474 47.4037 110.523 47.5386 110.532C47.5386 110.532 47.4992 110.542 47.5917 110.658C47.7301 110.71 47.8686 110.762 48.004 110.772C48.004 110.772 47.962 110.78 48.0609 110.897C48.2015 110.956 48.342 111.016 48.5975 111.18C51.0625 112.434 53.5262 113.69 55.9931 114.94C57.4873 115.697 58.9897 117.038 60.4829 117.031C62.0194 117.023 63.5561 115.709 65.0801 114.942C66.5376 114.208 67.9778 113.44 69.4276 112.691C70.5753 112.098 71.7261 111.511 73.0023 110.922C73.1474 110.837 73.2925 110.752 73.4727 110.67C73.4727 110.67 73.4951 110.643 73.628 110.594C73.7844 110.495 73.9407 110.397 74.0713 110.291C74.0713 110.291 74.0676 110.317 74.2104 110.291C74.3277 110.214 74.4449 110.136 74.537 110.051C74.537 110.051 74.5328 110.076 74.6764 110.054C74.7945 109.977 74.9127 109.901 75.0057 109.817C75.0057 109.817 75.0015 109.843 75.144 109.819C75.2612 109.742 75.3784 109.664 75.4742 109.579C75.4742 109.579 75.4702 109.601 75.5922 109.589C75.6604 109.546 75.7285 109.503 75.8086 109.455C75.8086 109.455 75.8088 109.468 75.9443 109.415C76.1054 109.316 76.2664 109.216 76.4072 109.109C76.4072 109.109 76.4025 109.13 76.5447 109.11C76.6615 109.033 76.7783 108.956 76.8763 108.873C76.8763 108.873 76.8722 108.892 76.9968 108.88C77.0656 108.835 77.1343 108.791 77.1837 108.763C77.1837 108.763 77.2092 108.759 77.3504 108.702C77.5879 108.527 77.8253 108.351 78.0414 108.173C78.0414 108.173 78.0413 108.195 78.191 108.17C78.3044 108.094 78.4178 108.018 78.5101 107.94C78.5101 107.94 78.51 107.961 78.659 107.935C78.7723 107.859 78.8856 107.784 78.9812 107.706C78.9812 107.706 78.9819 107.724 79.157 107.702C79.8158 107.407 80.4746 107.113 81.2505 106.766C80.733 105.783 80.2845 104.932 79.8366 104.044C79.8366 104.044 79.8061 104.024 79.7525 103.902C79.6496 103.76 79.5467 103.618 79.4109 103.318C77.5821 101.338 75.9817 99.065 73.8808 97.4334C68.147 92.9805 61.5523 91.8782 54.6034 93.7725C47.9626 95.5828 43.1365 99.7182 40.1907 106.179C39.6934 107.218 40.782 106.994 41.1202 107.316C41.1202 107.316 41.143 107.352 41.2456 107.441C41.3704 107.493 41.4952 107.545 41.6691 107.548ZM59.7256 8.47272C59.6774 8.40233 59.6292 8.33193 59.581 8.26154C59.5308 8.35619 59.4805 8.45083 59.3338 8.66647C59.2216 9.00805 59.1094 9.34962 58.8799 9.81303C57.197 13.9602 55.5138 18.1073 53.8312 22.2546C49.9686 31.7753 46.1205 41.3019 42.2335 50.8126C41.303 53.0895 41.0562 55.1691 42.0681 57.6359C44.4737 63.5005 46.4938 69.5224 48.6686 75.4811C50.5099 80.5262 52.3696 85.5647 54.1736 90.6229C54.5446 91.6629 55.066 92.0136 56.1672 91.7358C57.1817 91.4799 58.247 91.4239 59.4437 91.2923C59.5251 90.9447 59.6777 90.5971 59.6778 90.2494C59.688 63.0335 59.6862 35.8176 59.7256 8.47272ZM84.0292 63.7291C83.0516 61.336 82.0741 58.9428 81.0676 56.4788C80.3317 58.4047 79.6305 60.1803 78.9728 61.9719C76.895 67.6325 74.8337 73.2992 72.7656 78.9634C71.3246 82.91 69.9111 86.867 68.4222 90.7956C68.0316 91.8262 68.1553 92.4471 69.2168 92.8899C70.5355 93.44 71.8165 94.08 73.1591 94.7021C73.2397 94.6149 73.352 94.5121 73.4423 94.3929C78.2857 87.997 83.1366 81.6067 87.942 75.1825C88.1906 74.8501 88.2201 74.16 88.0603 73.749C86.7785 70.4497 85.4265 67.1774 84.0292 63.7291ZM51.7235 88.4765C47.8421 77.8547 43.9606 67.2329 39.9986 56.3907C37.5563 62.4027 35.2003 68.1633 32.9057 73.9482C32.7699 74.2906 33.0124 74.9125 33.2722 75.2611C36.6007 79.7284 39.964 84.17 43.3197 88.617C44.8855 90.692 46.4541 92.7647 47.9701 94.7707C49.7447 93.9374 51.3932 93.1633 53.1219 92.3516C52.6755 91.1211 52.2273 89.8856 51.7235 88.4765ZM26.2492 90.2987C26.0535 90.797 25.8578 91.2954 25.6332 91.8672C31.0587 94.7354 36.413 97.566 41.6586 100.339C43.3675 98.7096 44.9652 97.1862 46.6101 95.6176C41.7801 89.2177 36.9198 82.7777 31.9612 76.2075C30.0241 80.9824 28.1687 85.5561 26.2492 90.2987ZM77.4001 97.9064C78.0518 98.7044 78.7035 99.5024 79.3606 100.307C84.7792 97.4292 90.0929 94.6073 95.3985 91.7897C93.2905 86.594 91.2376 81.5341 89.1207 76.3165C84.1825 82.8442 79.3502 89.2319 74.4676 95.6862C75.4259 96.4042 76.3517 97.0978 77.4001 97.9064ZM32.2274 97.1603C29.8586 95.9109 27.4898 94.6616 25.0162 93.357C24.3463 95.005 23.7113 96.5669 23.0534 98.1851C28.2612 100.832 33.3509 103.419 38.4425 106.007C39.2433 104.523 39.9932 103.134 40.7727 101.69C37.9516 100.193 35.1666 98.7152 32.2274 97.1603ZM81.7959 104.054C82.1106 104.667 82.4252 105.279 82.7584 105.928C87.8739 103.326 92.914 100.762 98.0249 98.1628C97.3161 96.5898 96.6495 95.1106 95.8697 93.3802C90.6714 96.1277 85.5115 98.855 80.3535 101.581C80.856 102.43 81.2901 103.163 81.7959 104.054Z" fill="#FEFAFA"/>
<path d="M61.047 90.9833C61.0307 90.7493 61 90.5152 61 90.2812C61.0006 63.4119 61.0034 36.5426 61.113 9.51832C61.3683 9.24228 61.5167 9.12114 61.6651 9C61.6651 9 61.7243 9.05466 61.6818 9.13963C61.6923 9.2793 61.7455 9.33402 61.7986 9.38873C63.8198 14.2433 65.8552 19.0922 67.8592 23.9537C71.8257 33.5763 75.7662 43.2093 79.7466 52.8263C80.0841 53.6416 80.0769 54.3318 79.7702 55.1558C75.3189 67.1151 70.9011 79.0865 66.4723 91.0539C66.352 91.379 66.1982 91.6921 66.0648 92C64.5903 91.8111 63.1773 91.6301 61.6335 91.3447C61.3508 91.1547 61.1989 91.069 61.047 90.9833Z" fill="#858585"/>
<path d="M59 91.4458C57.9499 91.5916 56.8772 91.6483 55.8556 91.9074C54.7467 92.1887 54.2217 91.8336 53.8482 90.7807C52.0316 85.6597 50.1589 80.5587 48.3048 75.4511C46.1149 69.4184 44.0808 63.3218 41.6583 57.3844C40.6394 54.8871 40.8879 52.7816 41.8249 50.4765C45.739 40.8477 49.6139 31.203 53.5034 21.5642C55.1977 17.3654 56.8926 13.1669 58.6928 9C58.8631 9.65244 58.9839 10.2731 58.9842 10.8938C58.9961 37.7445 58.9974 64.5951 59 91.4458Z" fill="#616161"/>
<path d="M72.5321 110.928C71.3842 111.514 70.2348 112.097 69.0886 112.686C67.6406 113.431 66.2024 114.194 64.7467 114.924C63.2247 115.686 61.6899 116.992 60.1554 117C58.6641 117.007 57.1637 115.674 55.6713 114.922C53.2076 113.68 50.7471 112.431 48.1873 111.063C47.9432 110.89 47.7968 110.839 47.6505 110.787C47.6505 110.787 47.6924 110.779 47.6546 110.733C47.4739 110.641 47.3311 110.596 47.1883 110.551C47.1883 110.551 47.2276 110.541 47.1887 110.495C47.0067 110.406 46.8636 110.362 46.7206 110.318C46.7206 110.318 46.76 110.308 46.7208 110.263C46.5385 110.174 46.3954 110.13 46.2523 110.087C46.2523 110.087 46.291 110.077 46.2525 110.031C46.0719 109.94 45.9298 109.895 45.7878 109.85C45.7878 109.85 45.8253 109.841 45.7864 109.795C45.6068 109.703 45.466 109.657 45.3252 109.611C45.3252 109.611 45.3609 109.601 45.3206 109.556C45.1394 109.467 44.9984 109.423 44.8573 109.378C44.8573 109.378 44.8928 109.369 44.8528 109.324C44.6726 109.234 44.5324 109.189 44.3921 109.143C44.3921 109.143 44.4235 109.135 44.3857 109.099C44.2652 109.044 44.1825 109.025 44.0998 109.005C44.0998 109.005 44.12 109.019 44.0933 108.944C43.865 108.804 43.6633 108.74 43.4617 108.675C43.4617 108.675 43.4896 108.667 43.4512 108.63C43.3296 108.571 43.2464 108.549 43.1632 108.527C43.1632 108.527 43.1918 108.538 43.163 108.472C42.994 108.379 42.8538 108.352 42.7137 108.325C42.7137 108.325 42.6923 108.273 42.6791 108.224C42.5258 108.147 42.3857 108.12 42.2457 108.093C42.2457 108.093 42.2267 108.037 42.2122 107.989C42.0567 107.909 41.9157 107.877 41.7747 107.845C41.7747 107.845 41.827 107.808 41.7821 107.755C41.594 107.673 41.4509 107.643 41.3078 107.613C41.3078 107.613 41.3657 107.575 41.3175 107.522C41.1262 107.44 40.9833 107.41 40.8403 107.38C40.8403 107.38 40.8175 107.344 40.8217 107.282C40.5506 106.841 40.2753 106.463 40 106.085C42.8312 99.7918 47.6511 95.6813 54.2834 93.8819C61.2235 91.999 67.8097 93.0946 73.5361 97.5208C75.6343 99.1426 77.2327 101.401 79.0279 103.498C79.1491 103.775 79.3015 103.924 79.4538 104.072C79.4538 104.072 79.4843 104.092 79.4524 104.195C79.4167 104.337 79.3952 104.387 79.4119 104.413C80.3249 105.797 80.2553 106.952 78.6307 107.749C78.6307 107.749 78.6299 107.732 78.5662 107.738C78.3881 107.825 78.2737 107.905 78.1594 107.985C78.1594 107.985 78.1595 107.964 78.0973 107.97C77.9205 108.057 77.8059 108.137 77.6913 108.217C77.6913 108.217 77.6914 108.196 77.619 108.202C77.3179 108.398 77.0891 108.589 76.8603 108.779C76.8603 108.779 76.8348 108.782 76.7794 108.771C76.6573 108.811 76.5904 108.861 76.5236 108.91C76.5236 108.91 76.5278 108.891 76.4642 108.9C76.2852 108.989 76.1699 109.068 76.0546 109.147C76.0546 109.147 76.0592 109.126 75.9857 109.127C75.762 109.246 75.6118 109.365 75.4617 109.483C75.4617 109.483 75.4615 109.47 75.391 109.468C75.2549 109.515 75.1892 109.565 75.1235 109.616C75.1235 109.616 75.1275 109.594 75.064 109.602C74.8855 109.692 74.7704 109.774 74.6554 109.855C74.6554 109.855 74.6596 109.83 74.5976 109.837C74.4195 109.925 74.3034 110.006 74.1872 110.088C74.1872 110.088 74.1915 110.062 74.1293 110.069C73.9523 110.16 73.8375 110.244 73.7227 110.327C73.7227 110.327 73.7264 110.301 73.6552 110.298C73.4396 110.414 73.2953 110.532 73.1509 110.651C73.1509 110.651 73.1286 110.678 73.0414 110.645C72.8136 110.718 72.6728 110.823 72.5321 110.928Z" fill="#858585"/>
<path d="M83.8911 63.4832C85.2591 66.916 86.615 70.2547 87.9007 73.6211C88.0609 74.0405 88.0314 74.7446 87.782 75.0838C82.9623 81.6385 78.0969 88.1586 73.2391 94.6845C73.1485 94.8062 73.0359 94.911 72.9551 95C71.6085 94.3652 70.3237 93.7122 69.0011 93.151C67.9364 92.6992 67.8123 92.0657 68.2041 91.0141C69.6974 87.0057 71.1151 82.9683 72.5604 78.9415C74.6347 73.1622 76.7021 67.3804 78.7862 61.6047C79.4458 59.7767 80.1491 57.965 80.8872 56C81.8966 58.5141 82.8771 60.9558 83.8911 63.4832Z" fill="#595959"/>
<path d="M51.6467 88.6924C52.1167 90.036 52.5592 91.2915 53 92.5419C51.2931 93.3667 49.6654 94.1533 47.9131 95C46.4162 92.9617 44.8673 90.8554 43.3213 88.7469C40.0078 84.228 36.687 79.7147 33.4004 75.1753C33.1439 74.821 32.9044 74.1891 33.0385 73.8411C35.3042 67.9628 37.6305 62.1091 40.0421 56C43.9542 67.0174 47.7867 77.8108 51.6467 88.6924Z" fill="#4D4C4B"/>
<path d="M25.6487 89.9303C27.5383 85.2976 29.3958 80.7489 31.335 76C36.299 82.5344 41.1646 88.9392 46 95.3043C44.3532 96.8643 42.7538 98.3794 41.0431 100C35.7916 97.242 30.4314 94.4269 25 91.5743C25.2248 91.0056 25.4208 90.51 25.6487 89.9303Z" fill="#706E6C"/>
<path d="M76.8807 97.5411C75.8903 96.7896 74.9615 96.0957 74 95.3775C78.8987 88.9206 83.7469 82.5304 88.7015 76C90.8254 81.2197 92.8851 86.2817 95 91.4794C89.6769 94.2981 84.3457 97.1212 78.9091 100C78.2499 99.1952 77.596 98.3969 76.8807 97.5411Z" fill="#4F4F4F"/>
<path d="M32.3976 96.9482C35.3051 98.5064 38.1342 100.025 41 101.563C40.2082 103.047 39.4464 104.475 38.6329 106C33.4606 103.34 28.2903 100.682 23 97.9617C23.6683 96.2987 24.3133 94.6936 24.9939 93C27.5067 94.3407 29.913 95.6246 32.3976 96.9482Z" fill="#5E5C58"/>
<path d="M81.4326 103.977C80.954 103.136 80.5119 102.376 80 101.497C85.2539 98.6722 90.5098 95.8466 95.8047 93C96.599 94.7928 97.278 96.3253 98 97.955C92.7941 100.648 87.6602 103.304 82.4496 106C82.1102 105.328 81.7897 104.694 81.4326 103.977Z" fill="#555555"/>
<path d="M79 108C80.4114 107.107 80.4753 105.796 79.637 104.226C79.6217 104.197 79.6415 104.14 79.674 104C80.1142 104.863 80.5254 105.823 81 106.932C80.2885 107.323 79.6844 107.655 79 108Z" fill="white"/>
<path d="M40.1481 106C40.4669 106.272 40.7322 106.6 41 107C40.6639 106.759 39.6159 106.952 40.1481 106Z" fill="white"/>
<path d="M80 104C79.6718 103.799 79.2737 103.457 79 103C79.393 103.21 79.6615 103.535 80 104Z" fill="white"/>
<path d="M77 109C77.2265 108.705 77.5539 108.357 78 108C77.7795 108.31 77.4402 108.629 77 109Z" fill="white"/>
<path d="M73 111C73.173 110.71 73.4932 110.345 74 110C73.8401 110.321 73.4937 110.623 73 111Z" fill="white"/>
<path d="M43 108.119C43.1627 107.827 43.4982 108.069 44 108.878C43.8351 109.181 43.504 108.917 43 108.119Z" fill="white"/>
<path d="M75 110C75.024 109.686 75.3514 109.326 76 109C75.982 109.341 75.6427 109.647 75 110Z" fill="white"/>
</svg>
