<svg width="250" height="38" viewBox="0 0 250 38" fill="none" xmlns="http://www.w3.org/2000/svg">
<path opacity="0.755" fill-rule="evenodd" clip-rule="evenodd" d="M205.285 0C206.252 0 207.218 0 208.185 0C208.185 1.08251 208.185 2.16535 208.185 3.24787C207.218 3.24787 206.252 3.24787 205.285 3.24787C205.285 2.16535 205.285 1.08251 205.285 0Z" fill="white"/>
<path opacity="0.686" fill-rule="evenodd" clip-rule="evenodd" d="M210.763 0C211.837 0 212.911 0 213.985 0C214.038 0.980206 213.984 1.95457 213.824 2.92308C212.839 3.23195 211.819 3.3401 210.763 3.24787C210.763 2.16535 210.763 1.08251 210.763 0Z" fill="white"/>
<path opacity="0.955" fill-rule="evenodd" clip-rule="evenodd" d="M62.2262 2.27344C62.8684 13.6358 63.0833 25.1118 62.8706 36.7008C60.4002 36.7008 57.9302 36.7008 55.4598 36.7008C55.5137 30.4207 55.4598 24.1413 55.2987 17.8632C47.3473 24.5798 39.3994 31.2921 31.4554 38C23.4035 33.1334 15.3483 28.2616 7.28989 23.3846C7.12879 27.8221 7.07498 32.2607 7.12879 36.7008C4.76604 36.7008 2.40298 36.7008 0.0402306 36.7008C-0.0670644 28.1453 0.0402306 19.5927 0.362438 11.0427C10.5538 17.0408 20.7034 23.1033 30.811 29.2307C41.2756 20.2007 51.7474 11.2148 62.2262 2.27344Z" fill="#929292"/>
<path opacity="0.857" fill-rule="evenodd" clip-rule="evenodd" d="M80.5914 4.22223C86.1791 4.06276 88.9179 6.76953 88.8077 12.3419C87.4431 16.7395 84.4895 18.5258 79.947 17.7009C79.2233 17.3634 78.5251 16.9844 77.8526 16.5641C77.6915 19.5934 77.6381 22.625 77.6915 25.6581C76.7249 25.6581 75.7583 25.6581 74.7917 25.6581C74.6486 20.0104 74.8097 14.3806 75.275 8.76924C76.2274 6.23656 77.9996 4.72078 80.5914 4.22223ZM80.2692 7.14531C84.8371 6.83059 86.502 8.88746 85.2634 13.3163C83.6263 15.4251 81.6392 15.8041 79.3026 14.453C76.9988 11.6689 77.321 9.23304 80.2692 7.14531Z" fill="white"/>
<path opacity="0.848" fill-rule="evenodd" clip-rule="evenodd" d="M96.7026 4.22229C103.255 4.5932 105.778 7.94922 104.274 14.2907C101.911 17.7188 98.7428 18.7474 94.7693 17.3761C90.6976 14.8691 89.7848 11.4589 92.0306 7.14537C93.3365 5.70527 94.8937 4.73091 96.7026 4.22229ZM96.3804 7.14537C100.186 6.59843 101.958 8.22236 101.697 12.0172C100.527 15.1897 98.4331 16.0016 95.4137 14.4531C93.1148 11.6544 93.437 9.21848 96.3804 7.14537Z" fill="white"/>
<path opacity="0.833" fill-rule="evenodd" clip-rule="evenodd" d="M112.813 4.22228C115.627 4.02936 117.936 5.00371 119.741 7.14536C120.291 7.92777 120.559 8.79365 120.546 9.74365C118.753 10.1753 117.464 9.57996 116.68 7.95732C111.526 6.14014 109.432 7.92647 110.397 13.3163C112.161 15.4005 114.255 15.7795 116.68 14.4531C117.607 12.7768 119.003 12.2897 120.869 12.9915C119.172 17.041 116.165 18.6106 111.847 17.7009C107.62 16.1458 106.062 13.1685 107.175 8.76929C108.352 6.33501 110.231 4.81924 112.813 4.22228Z" fill="white"/>
<path opacity="0.85" fill-rule="evenodd" clip-rule="evenodd" d="M147.611 4.22229C153.362 4.33467 155.994 7.25775 155.505 12.9915C153.102 17.9575 149.397 19.2024 144.389 16.7266C140.43 12.8171 140.537 9.02816 144.711 5.35904C145.7 4.93812 146.667 4.55942 147.611 4.22229ZM147.289 7.14537C151.297 6.90698 152.961 8.74754 152.283 12.6667C151.076 15.1413 149.196 15.8448 146.644 14.7779C144.577 12.9996 144.201 10.8885 145.516 8.44452C146.1 7.96481 146.691 7.53186 147.289 7.14537Z" fill="white"/>
<path opacity="0.849" fill-rule="evenodd" clip-rule="evenodd" d="M177.898 4.22229C183.105 4.43632 185.736 7.1431 185.792 12.342C184.345 16.8363 181.284 18.6227 176.609 17.7009C171.797 15.4917 170.562 11.973 172.904 7.14537C174.286 5.61205 175.951 4.63769 177.898 4.22229ZM177.254 7.14537C181.822 6.83065 183.487 8.88752 182.248 13.3163C180.128 15.7883 177.872 15.8964 175.482 13.6411C174.377 10.9353 174.968 8.76995 177.254 7.14537Z" fill="white"/>
<path opacity="0.845" fill-rule="evenodd" clip-rule="evenodd" d="M208.508 4.22215C213.736 4.18739 216.421 6.78569 216.564 12.017C212.906 11.9092 209.254 12.0173 205.609 12.3418C206.935 15.2233 209.083 16.0353 212.053 14.7777C212.697 14.5611 213.127 14.1281 213.341 13.4786C214.302 13.3168 215.269 13.2626 216.241 13.3162C215.798 15.6589 214.401 17.1204 212.053 17.7008C204.845 18.4475 201.891 15.2538 203.192 8.11958C204.446 6.05751 206.218 4.75837 208.508 4.22215ZM209.475 6.82044C211.282 7.02538 212.571 7.94582 213.341 9.58112C210.864 9.85102 208.394 9.79711 205.931 9.41873C206.628 7.82728 207.809 6.96107 209.475 6.82044Z" fill="white"/>
<path opacity="0.825" fill-rule="evenodd" clip-rule="evenodd" d="M122.801 4.54698C124.32 4.44078 125.823 4.54926 127.312 4.87177C128.482 7.50936 129.717 10.1077 131.017 12.6666C132.442 10.1193 133.784 7.52105 135.045 4.87177C136.425 4.54958 137.821 4.4411 139.233 4.54698C139.233 8.98584 139.233 13.4244 139.233 17.8632C138.267 17.8632 137.3 17.8632 136.333 17.8632C136.387 14.8301 136.333 11.7985 136.172 8.76921C135.011 11.1483 133.883 13.5303 132.789 15.9145C131.647 16.3338 130.519 16.3338 129.406 15.9145C128.224 13.3162 127.043 10.7179 125.862 8.11964C125.701 11.3656 125.647 14.6134 125.701 17.8632C124.734 17.8632 123.767 17.8632 122.801 17.8632C122.801 13.4244 122.801 8.98584 122.801 4.54698Z" fill="white"/>
<path opacity="0.814" fill-rule="evenodd" clip-rule="evenodd" d="M162.755 4.547C165.01 4.547 167.266 4.547 169.521 4.547C169.521 8.98585 169.521 13.4244 169.521 17.8632C168.447 17.8632 167.373 17.8632 166.299 17.8632C166.299 14.3987 166.299 10.9346 166.299 7.47008C165.327 7.41649 164.36 7.47073 163.399 7.63247C163.139 7.7325 162.924 7.8949 162.755 8.11965C162.228 10.7654 161.53 13.3637 160.66 15.9145C159.691 17.3413 158.349 17.9909 156.633 17.8632C156.633 16.7807 156.633 15.6979 156.633 14.6154C157.436 14.6709 158.027 14.3461 158.405 13.641C158.86 11.3467 159.397 9.07322 160.016 6.8205C160.73 5.78866 161.643 5.0306 162.755 4.547Z" fill="white"/>
<path opacity="0.836" fill-rule="evenodd" clip-rule="evenodd" d="M192.719 4.54688C194.975 4.54688 197.23 4.54688 199.486 4.54688C199.486 8.01137 199.486 11.4755 199.486 14.94C200.023 14.94 200.56 14.94 201.097 14.94C201.097 16.8888 201.097 18.8375 201.097 20.7862C200.13 20.7862 199.164 20.7862 198.197 20.7862C198.197 19.8118 198.197 18.8375 198.197 17.8631C195.082 17.8631 191.968 17.8631 188.853 17.8631C188.853 18.8375 188.853 19.8118 188.853 20.7862C187.886 20.7862 186.92 20.7862 185.953 20.7862C185.953 18.8375 185.953 16.8888 185.953 14.94C186.631 15.0372 187.275 14.929 187.886 14.6153C188.684 12.2671 189.382 9.88507 189.981 7.46995C190.525 6.11072 191.437 5.13636 192.719 4.54688ZM193.364 7.46995C194.438 7.46995 195.512 7.46995 196.586 7.46995C196.586 9.96009 196.586 12.4499 196.586 14.94C194.65 14.994 192.717 14.9397 190.786 14.7777C191.551 12.8345 192.141 10.8315 192.558 8.7691C192.772 8.28712 193.04 7.85418 193.364 7.46995Z" fill="white"/>
<path opacity="0.825" fill-rule="evenodd" clip-rule="evenodd" d="M217.53 4.87179C218.542 4.50121 219.616 4.44697 220.752 4.7094C221.84 6.19757 222.807 7.76726 223.652 9.4188C224.263 9.73255 224.908 9.8407 225.585 9.74359C225.585 8.0115 225.585 6.27909 225.585 4.547C226.552 4.547 227.519 4.547 228.485 4.547C228.584 6.25603 228.476 7.93388 228.163 9.5812C228.833 9.84362 229.477 9.78938 230.096 9.4188C231.103 7.87639 232.07 6.30637 232.996 4.7094C234.086 4.44177 235.16 4.49601 236.218 4.87179C234.968 6.83545 233.786 8.83841 232.674 10.8803C233.92 13.121 235.209 15.3406 236.541 17.5385C235.482 17.9142 234.408 17.9685 233.318 17.7009C232.298 16.0227 231.278 14.3448 230.257 12.6667C229.592 12.3123 228.894 12.2581 228.163 12.5043C228.529 14.1548 228.583 15.833 228.324 17.5385C227.448 17.8451 226.535 17.9532 225.585 17.8633C225.585 16.0227 225.585 14.1824 225.585 12.3419C224.847 12.2587 224.149 12.3669 223.491 12.6667C222.592 14.426 221.572 16.1042 220.43 17.7009C219.469 17.8626 218.503 17.9168 217.53 17.8633C217.527 17.276 217.689 16.7346 218.014 16.2393C219.101 14.4254 220.229 12.6391 221.397 10.8803C220.141 8.82867 218.852 6.82603 217.53 4.87179Z" fill="white"/>
<path opacity="0.859" fill-rule="evenodd" clip-rule="evenodd" d="M237.829 4.54688C238.795 4.54688 239.762 4.54688 240.728 4.54688C240.675 5.63491 240.729 6.71742 240.89 7.79474C243.348 5.6872 245.871 5.63329 248.461 7.63235C248.983 8.3079 249.467 9.01139 249.911 9.74346C250.562 16.4458 247.608 18.9898 241.051 17.3759C239.923 16.6721 239.01 15.752 238.312 14.6153C237.852 11.2849 237.691 7.92855 237.829 4.54688ZM242.662 9.09389C245.881 8.71291 247.33 10.1202 247.012 13.3161C245.549 15.5071 243.722 15.8319 241.534 14.2905C240.412 12.2174 240.788 10.4853 242.662 9.09389Z" fill="white"/>
<path opacity="0.819" fill-rule="evenodd" clip-rule="evenodd" d="M80.2688 26.6324C80.6983 26.6324 81.1281 26.6324 81.5576 26.6324C81.6613 27.3541 81.4464 27.9498 80.9132 28.4188C79.855 28.7842 78.7811 29.1089 77.6911 29.3931C76.9104 29.6309 76.5344 30.1181 76.5634 30.8547C78.7744 29.4659 80.6 29.8988 82.0409 32.1538C82.7407 35.2321 81.5595 36.9642 78.4966 37.3504C76.7757 37.4053 75.5942 36.6476 74.9523 35.0769C73.6394 30.843 75.0893 28.2986 79.3021 27.4444C79.7668 27.322 80.089 27.0514 80.2688 26.6324ZM77.3689 31.5042C80.1176 31.2428 81.0843 32.4338 80.2688 35.0769C79.035 36.3406 77.8 36.3406 76.5634 35.0769C76.1806 33.6995 76.449 32.5085 77.3689 31.5042Z" fill="white"/>
<path opacity="0.788" fill-rule="evenodd" clip-rule="evenodd" d="M91.8688 29.8804C93.4627 29.5972 94.8051 30.0301 95.8964 31.1795C96.1906 32.1058 95.9222 32.8096 95.0909 33.2906C96.0088 34.1218 96.2775 35.1504 95.8964 36.3761C95.6054 36.7662 95.2297 37.0371 94.7687 37.1881C93.0597 37.5343 91.4486 37.318 89.9355 36.5385C90.1505 36.2137 90.365 35.8889 90.58 35.5641C91.371 35.6457 92.1765 35.8081 92.9965 36.0513C93.7601 36.0189 94.3507 35.6941 94.7687 35.077C94.5786 34.6551 94.2563 34.3845 93.802 34.265C93.0577 34.1036 92.306 34.0497 91.5466 34.1026C91.5466 33.6697 91.5466 33.2364 91.5466 32.8035C92.4124 32.8567 93.2717 32.8025 94.1242 32.6411C94.5537 32.3163 94.5537 31.9915 94.1242 31.6667C93.0307 31.4225 91.9568 31.4767 90.9022 31.8291C90.435 31.3906 90.2201 30.8495 90.2578 30.2052C90.8748 30.2974 91.4116 30.1893 91.8688 29.8804Z" fill="white"/>
<path opacity="0.782" fill-rule="evenodd" clip-rule="evenodd" d="M107.014 29.8803C110.021 29.6637 111.417 31.0713 111.202 34.1025C109.374 34.0486 107.548 34.1029 105.725 34.2649C106.987 36.4725 108.491 36.6349 110.236 34.7521C110.665 34.9687 110.988 35.2935 111.202 35.7265C109.666 37.3861 107.84 37.7652 105.725 36.8632C103.979 35.1831 103.711 33.2886 104.919 31.1795C105.568 30.6117 106.266 30.1785 107.014 29.8803ZM106.692 31.5042C107.451 31.4513 108.203 31.5052 108.947 31.6666C109.223 31.8904 109.438 32.161 109.591 32.4786C108.316 32.8554 107.027 32.9096 105.725 32.641C106.115 32.3035 106.437 31.9245 106.692 31.5042Z" fill="white"/>
<path opacity="0.808" fill-rule="evenodd" clip-rule="evenodd" d="M114.423 29.8803C115.755 29.6994 116.937 30.0242 117.967 30.8547C117.85 31.31 117.581 31.6348 117.162 31.829C115.132 30.9687 113.789 31.564 113.134 33.6154C113.803 35.8801 115.199 36.4754 117.323 35.4017C118.25 36.1854 118.143 36.7811 117.001 37.188C112.793 37.8188 111.129 36.0324 112.007 31.829C112.694 30.9674 113.5 30.3178 114.423 29.8803Z" fill="white"/>
<path opacity="0.82" fill-rule="evenodd" clip-rule="evenodd" d="M83.168 30.2053C83.7051 30.2053 84.2419 30.2053 84.779 30.2053C84.7255 31.6168 84.7793 33.0241 84.9401 34.4275C85.8368 32.9819 86.8572 31.6288 88.0011 30.3677C88.5276 30.2072 89.0647 30.1533 89.6121 30.2053C89.6656 32.4814 89.6121 34.7549 89.451 37.0258C89.0141 37.3116 88.5308 37.4201 88.0011 37.3506C88.0546 35.8309 88.0008 34.3155 87.84 32.8036C86.8289 34.3531 85.7012 35.8147 84.4568 37.1882C84.0402 37.3473 83.6104 37.4016 83.168 37.3506C83.168 34.9689 83.168 32.5869 83.168 30.2053Z" fill="white"/>
<path opacity="0.761" fill-rule="evenodd" clip-rule="evenodd" d="M97.0244 30.2051C97.5615 30.2051 98.0983 30.2051 98.6354 30.2051C98.6354 31.0713 98.6354 31.9372 98.6354 32.8034C99.7094 32.8034 100.784 32.8034 101.858 32.8034C101.858 31.9372 101.858 31.0713 101.858 30.2051C102.395 30.2051 102.931 30.2051 103.469 30.2051C103.469 32.5867 103.469 34.9687 103.469 37.3504C102.931 37.3504 102.395 37.3504 101.858 37.3504C101.858 36.2679 101.858 35.185 101.858 34.1025C100.784 34.1025 99.7094 34.1025 98.6354 34.1025C98.6354 35.185 98.6354 36.2679 98.6354 37.3504C98.0983 37.3504 97.5615 37.3504 97.0244 37.3504C97.0244 34.9687 97.0244 32.5867 97.0244 30.2051Z" fill="white"/>
</svg>
