<svg width="48" height="48" viewBox="0 0 48 48" fill="none" xmlns="http://www.w3.org/2000/svg">
<g clip-path="url(#clip0_6_570)">
<path d="M24.0078 0C13.9881 0 11.0576 0.0103406 10.488 0.0575999C8.43181 0.228568 7.15231 0.552416 5.75834 1.24661C4.68409 1.78021 3.83685 2.39872 3.0007 3.26575C1.47792 4.84693 0.555014 6.79219 0.220916 9.10452C0.0584934 10.2271 0.0112338 10.456 0.00163679 16.1899C-0.00204598 18.1012 0.00163679 20.6166 0.00163679 23.9906C0.00163679 34.005 0.0127032 36.9332 0.0607062 37.5019C0.22683 39.5033 0.540609 40.7625 1.2051 42.1398C2.47503 44.7763 4.90039 46.7556 7.75772 47.4941C8.74708 47.7489 9.83979 47.8892 11.2426 47.9557C11.837 47.9815 17.8949 48 23.9565 48C30.0182 48 36.0798 47.9926 36.6594 47.9631C38.2837 47.8866 39.2269 47.76 40.2698 47.4904C43.1455 46.7482 45.5266 44.7985 46.8224 42.125C47.4739 40.7809 47.8043 39.4737 47.9539 37.5768C47.9863 37.1633 48 30.5693 48 23.9843C48 17.3981 47.9852 10.8164 47.9527 10.4028C47.8014 8.47529 47.471 7.17919 46.7984 5.80922C46.2465 4.68777 45.6337 3.85027 44.744 2.99398C43.1562 1.47705 41.2145 0.553885 38.9005 0.220077C37.7794 0.0579629 37.5561 0.00995981 31.8193 0H24.0078Z" fill="url(#paint0_radial_6_570)"/>
<path d="M24.0078 0C13.9881 0 11.0576 0.0103406 10.488 0.0575999C8.43181 0.228568 7.15231 0.552416 5.75834 1.24661C4.68409 1.78021 3.83685 2.39872 3.0007 3.26575C1.47792 4.84693 0.555014 6.79219 0.220916 9.10452C0.0584934 10.2271 0.0112338 10.456 0.00163679 16.1899C-0.00204598 18.1012 0.00163679 20.6166 0.00163679 23.9906C0.00163679 34.005 0.0127032 36.9332 0.0607062 37.5019C0.22683 39.5033 0.540609 40.7625 1.2051 42.1398C2.47503 44.7763 4.90039 46.7556 7.75772 47.4941C8.74708 47.7489 9.83979 47.8892 11.2426 47.9557C11.837 47.9815 17.8949 48 23.9565 48C30.0182 48 36.0798 47.9926 36.6594 47.9631C38.2837 47.8866 39.2269 47.76 40.2698 47.4904C43.1455 46.7482 45.5266 44.7985 46.8224 42.125C47.4739 40.7809 47.8043 39.4737 47.9539 37.5768C47.9863 37.1633 48 30.5693 48 23.9843C48 17.3981 47.9852 10.8164 47.9527 10.4028C47.8014 8.47529 47.471 7.17919 46.7984 5.80922C46.2465 4.68777 45.6337 3.85027 44.744 2.99398C43.1562 1.47705 41.2145 0.553885 38.9005 0.220077C37.7794 0.0579629 37.5561 0.00995981 31.8193 0H24.0078Z" fill="url(#paint1_radial_6_570)"/>
<path d="M24.0078 0C13.9881 0 11.0576 0.0103406 10.488 0.0575999C8.43181 0.228568 7.15231 0.552416 5.75834 1.24661C4.68409 1.78021 3.83685 2.39872 3.0007 3.26575C1.47792 4.84693 0.555014 6.79219 0.220916 9.10452C0.0584934 10.2271 0.0112338 10.456 0.00163679 16.1899C-0.00204598 18.1012 0.00163679 20.6166 0.00163679 23.9906C0.00163679 34.005 0.0127032 36.9332 0.0607062 37.5019C0.22683 39.5033 0.540609 40.7625 1.2051 42.1398C2.47503 44.7763 4.90039 46.7556 7.75772 47.4941C8.74708 47.7489 9.83979 47.8892 11.2426 47.9557C11.837 47.9815 17.8949 48 23.9565 48C30.0182 48 36.0798 47.9926 36.6594 47.9631C38.2837 47.8866 39.2269 47.76 40.2698 47.4904C43.1455 46.7482 45.5266 44.7985 46.8224 42.125C47.4739 40.7809 47.8043 39.4737 47.9539 37.5768C47.9863 37.1633 48 30.5693 48 23.9843C48 17.3981 47.9852 10.8164 47.9527 10.4028C47.8014 8.47529 47.471 7.17919 46.7984 5.80922C46.2465 4.68777 45.6337 3.85027 44.744 2.99398C43.1562 1.47705 41.2145 0.553885 38.9005 0.220077C37.7794 0.0579629 37.5561 0.00995981 31.8193 0H24.0078Z" fill="url(#paint2_radial_6_570)"/>
<path d="M24.0078 0C13.9881 0 11.0576 0.0103406 10.488 0.0575999C8.43181 0.228568 7.15231 0.552416 5.75834 1.24661C4.68409 1.78021 3.83685 2.39872 3.0007 3.26575C1.47792 4.84693 0.555014 6.79219 0.220916 9.10452C0.0584934 10.2271 0.0112338 10.456 0.00163679 16.1899C-0.00204598 18.1012 0.00163679 20.6166 0.00163679 23.9906C0.00163679 34.005 0.0127032 36.9332 0.0607062 37.5019C0.22683 39.5033 0.540609 40.7625 1.2051 42.1398C2.47503 44.7763 4.90039 46.7556 7.75772 47.4941C8.74708 47.7489 9.83979 47.8892 11.2426 47.9557C11.837 47.9815 17.8949 48 23.9565 48C30.0182 48 36.0798 47.9926 36.6594 47.9631C38.2837 47.8866 39.2269 47.76 40.2698 47.4904C43.1455 46.7482 45.5266 44.7985 46.8224 42.125C47.4739 40.7809 47.8043 39.4737 47.9539 37.5768C47.9863 37.1633 48 30.5693 48 23.9843C48 17.3981 47.9852 10.8164 47.9527 10.4028C47.8014 8.47529 47.471 7.17919 46.7984 5.80922C46.2465 4.68777 45.6337 3.85027 44.744 2.99398C43.1562 1.47705 41.2145 0.553885 38.9005 0.220077C37.7794 0.0579629 37.5561 0.00995981 31.8193 0H24.0078Z" fill="url(#paint3_radial_6_570)"/>
<path d="M24.0094 6.16327C19.1625 6.16327 18.5542 6.18444 16.6506 6.27101C14.7506 6.35795 13.4538 6.65852 12.319 7.09955C11.1452 7.55503 10.1495 8.16434 9.15753 9.15595C8.16481 10.1472 7.55503 11.1422 7.09772 12.3147C6.65526 13.449 6.35409 14.7453 6.26859 16.6431C6.18345 18.5453 6.16113 19.1535 6.16113 23.9968C6.16113 28.8401 6.1827 29.446 6.26895 31.3483C6.35634 33.2468 6.65713 34.5427 7.09808 35.6766C7.55429 36.8495 8.16405 37.8445 9.15641 38.8357C10.148 39.8277 11.1437 40.4385 12.3168 40.894C13.4523 41.335 14.7495 41.6356 16.6491 41.7226C18.5527 41.8091 19.1606 41.8303 24.0071 41.8303C28.8544 41.8303 29.4608 41.8091 31.3645 41.7225C33.2644 41.6356 34.5628 41.335 35.6983 40.894C36.8717 40.4385 37.8659 39.8277 38.8575 38.8357C39.8502 37.8445 40.46 36.8495 40.9173 35.677C41.356 34.5427 41.6572 33.2464 41.7465 31.3486C41.832 29.4464 41.8543 28.8401 41.8543 23.9968C41.8543 19.1535 41.832 18.5457 41.7465 16.6434C41.6572 14.7449 41.356 13.449 40.9173 12.3151C40.46 11.1422 39.8502 10.1472 38.8575 9.15595C37.8648 8.16396 36.872 7.55465 35.6971 7.09953C34.5594 6.65852 33.2618 6.35795 31.3619 6.27101C29.4582 6.18444 28.8522 6.16327 24.0038 6.16327H24.0094ZM22.4084 9.37702C22.8836 9.37628 23.4137 9.37702 24.0094 9.37702C28.7745 9.37702 29.3392 9.39411 31.2209 9.47956C32.961 9.55908 33.9054 9.8496 34.5345 10.0937C35.3673 10.4169 35.9611 10.8033 36.5854 11.4275C37.21 12.0517 37.5967 12.6461 37.9209 13.4783C38.1652 14.1062 38.4563 15.0499 38.5355 16.7887C38.621 18.6686 38.6396 19.2334 38.6396 23.9927C38.6396 28.752 38.621 29.3167 38.5355 31.1967C38.4559 32.9354 38.1652 33.8791 37.9209 34.507C37.5975 35.3393 37.21 35.9319 36.5854 36.5556C35.9608 37.1798 35.3677 37.5662 34.5345 37.8894C33.9061 38.1347 32.961 38.4244 31.2209 38.504C29.3396 38.5894 28.7745 38.608 24.0094 38.608C19.2439 38.608 18.6791 38.5894 16.7978 38.504C15.0577 38.4237 14.1134 38.1332 13.4839 37.8891C12.651 37.5658 12.0561 37.1794 11.4315 36.5553C10.8069 35.9311 10.4202 35.3382 10.096 34.5055C9.85169 33.8777 9.56057 32.934 9.48138 31.1952C9.39586 29.3152 9.37875 28.7505 9.37875 23.9882C9.37875 19.226 9.39586 18.6642 9.48138 16.7842C9.56095 15.0455 9.85169 14.1018 10.096 13.4732C10.4194 12.6409 10.8069 12.0465 11.4315 11.4223C12.0561 10.7981 12.651 10.4117 13.4839 10.0878C14.113 9.84254 15.0577 9.55276 16.7978 9.47287C18.4442 9.39856 19.0822 9.37628 22.4084 9.37254L22.4084 9.37702ZM33.5358 12.3381C32.3535 12.3381 31.3942 13.2956 31.3942 14.4774C31.3942 15.6589 32.3535 16.6174 33.5358 16.6174C34.7182 16.6174 35.6774 15.6589 35.6774 14.4774C35.6774 13.2959 34.7182 12.3374 33.5358 12.3374L33.5358 12.3381ZM24.0094 14.8385C18.948 14.8385 14.8443 18.9391 14.8443 23.9968C14.8443 29.0544 18.948 33.1532 24.0094 33.1532C29.0708 33.1532 33.1729 29.0544 33.1729 23.9968C33.1729 18.9391 29.0704 14.8385 24.009 14.8385H24.0094ZM24.0094 18.0523C27.2947 18.0523 29.9583 20.7136 29.9583 23.9968C29.9583 27.2796 27.2947 29.9413 24.0094 29.9413C20.7237 29.9413 18.0605 27.2796 18.0605 23.9968C18.0605 20.7136 20.7237 18.0523 24.0094 18.0523Z" fill="white"/>
</g>
<defs>
<radialGradient id="paint0_radial_6_570" cx="0" cy="0" r="1" gradientUnits="userSpaceOnUse" gradientTransform="translate(46.4501 22.4982) rotate(164.25) scale(30.6693 22.0957)">
<stop stop-color="#FF005F"/>
<stop offset="1" stop-color="#FC01D8"/>
</radialGradient>
<radialGradient id="paint1_radial_6_570" cx="0" cy="0" r="1" gradientUnits="userSpaceOnUse" gradientTransform="translate(12.7496 51.697) rotate(-90) scale(38.3145 40.6509)">
<stop stop-color="#FFCC00"/>
<stop offset="0.1242" stop-color="#FFCC00"/>
<stop offset="0.5672" stop-color="#FE4A05"/>
<stop offset="0.6942" stop-color="#FF0F3F"/>
<stop offset="1" stop-color="#FE0657" stop-opacity="0"/>
</radialGradient>
<radialGradient id="paint2_radial_6_570" cx="0" cy="0" r="1" gradientUnits="userSpaceOnUse" gradientTransform="translate(25.2129 47.3231) rotate(-59.8703) scale(15.8434 20.6263)">
<stop stop-color="#FFCC00"/>
<stop offset="1" stop-color="#FFCC00" stop-opacity="0"/>
</radialGradient>
<radialGradient id="paint3_radial_6_570" cx="0" cy="0" r="1" gradientUnits="userSpaceOnUse" gradientTransform="translate(6.51257 1.95455) rotate(164.274) scale(30.3291 10.3331)">
<stop stop-color="#780CFF"/>
<stop offset="1" stop-color="#820BFF" stop-opacity="0"/>
</radialGradient>
<clipPath id="clip0_6_570">
<rect width="48" height="48" rx="24" fill="white"/>
</clipPath>
</defs>
</svg>
